<svg width="18" height="18" viewBox="0 0 18 18" fill="none" xmlns="http://www.w3.org/2000/svg">
<path d="M9.00002 0.365623C5.09065 0.365623 1.8844 3.45937 1.8844 7.22812C1.8844 10.2375 6.18752 15.2156 8.04377 17.2406C8.2969 17.5219 8.63439 17.6625 9.00002 17.6625C9.36564 17.6625 9.70314 17.5219 9.95627 17.2406C11.8125 15.2437 16.1156 10.2375 16.1156 7.22812C16.1156 3.43125 12.9094 0.365623 9.00002 0.365623ZM9.22502 16.5656C9.08439 16.7062 8.88752 16.7062 8.77502 16.5656C7.3969 15.075 2.86877 9.95625 2.86877 7.22812C2.86877 3.96562 5.62502 1.35 9.00002 1.35C12.375 1.35 15.1313 3.99375 15.1313 7.22812C15.1313 9.95625 10.6031 15.0469 9.22502 16.5656Z" fill="#3056D3"/>
<path d="M9.00002 4.41563C7.34065 4.41563 5.96252 5.76563 5.96252 7.45313C5.96252 9.1125 7.31252 10.4906 9.00002 10.4906C10.6875 10.4906 12.0375 9.14063 12.0375 7.45313C12.0375 5.76563 10.6594 4.41563 9.00002 4.41563ZM9.00002 9.47813C7.87502 9.47813 6.9469 8.55 6.9469 7.425C6.9469 6.3 7.87502 5.37188 9.00002 5.37188C10.125 5.37188 11.0531 6.3 11.0531 7.425C11.0531 8.55 10.125 9.47813 9.00002 9.47813Z" fill="#3056D3"/>
</svg>
