<svg width="18" height="18" viewBox="0 0 18 18" fill="none" xmlns="http://www.w3.org/2000/svg">
<path d="M16.0313 3.06562H1.96877C1.06877 3.06562 0.337524 3.79687 0.337524 4.69687V13.3313C0.337524 14.2313 1.06877 14.9625 1.96877 14.9625H16.0313C16.9313 14.9625 17.6625 14.2313 17.6625 13.3313V4.69687C17.6625 3.79687 16.9313 3.06562 16.0313 3.06562ZM16.0313 4.05C16.1719 4.05 16.2844 4.07812 16.3969 4.1625L9.39377 8.40937C9.14065 8.55 8.8594 8.55 8.60627 8.40937L1.60315 4.1625C1.71565 4.10625 1.82815 4.05 1.96877 4.05H16.0313ZM16.0313 13.95H1.96877C1.63127 13.95 1.3219 13.6688 1.3219 13.3031V5.14687L8.0719 9.25313C8.35315 9.42188 8.66252 9.50625 8.9719 9.50625C9.28127 9.50625 9.59065 9.42188 9.8719 9.25313L16.6219 5.14687V13.3031C16.6781 13.6688 16.3688 13.95 16.0313 13.95Z" fill="#3056D3"/>
</svg>
