<svg width="19" height="19" viewBox="0 0 19 19" fill="none" xmlns="http://www.w3.org/2000/svg">
<path d="M16.2189 13.5692L13.0007 10.6432C12.8486 10.5049 12.6487 10.4312 12.4432 10.4375C12.2378 10.4439 12.0428 10.5298 11.8995 10.6772L10.0051 12.6255C9.54906 12.5384 8.63231 12.2526 7.68865 11.3113C6.74498 10.3669 6.45919 9.44775 6.37448 8.99492L8.32119 7.09967C8.46876 6.95648 8.55484 6.76149 8.56119 6.55596C8.56754 6.35043 8.49368 6.15049 8.35523 5.99846L5.43002 2.78113C5.29151 2.62862 5.09901 2.53611 4.89339 2.52325C4.68778 2.51039 4.48524 2.57819 4.32881 2.71225L2.6109 4.18555C2.47403 4.32291 2.39233 4.50574 2.38131 4.69934C2.36944 4.89725 2.14302 9.5855 5.77835 13.2224C8.94977 16.393 12.9224 16.625 14.0164 16.625C14.1764 16.625 14.2745 16.6203 14.3006 16.6187C14.4942 16.6078 14.6769 16.5258 14.8136 16.3883L16.2861 14.6696C16.4207 14.5137 16.489 14.3113 16.4765 14.1057C16.4639 13.9001 16.3714 13.7075 16.2189 13.5692Z" fill="#3056D3"/>
</svg>
