<svg width="25" height="25" viewBox="0 0 25 25" fill="none" xmlns="http://www.w3.org/2000/svg">
<path d="M23.2143 14.2857H14.2857V23.2143C14.2857 24.1964 13.4821 25 12.5 25C11.5179 25 10.7143 24.1964 10.7143 23.2143V14.2857H1.78571C0.803571 14.2857 0 13.4821 0 12.5C0 11.5179 0.803571 10.7143 1.78571 10.7143H10.7143V1.78571C10.7143 0.803571 11.5179 0 12.5 0C13.4821 0 14.2857 0.803571 14.2857 1.78571V10.7143H23.2143C24.1964 10.7143 25 11.5179 25 12.5C25 13.4821 24.1964 14.2857 23.2143 14.2857Z" fill="#090E34"/>
</svg>
