<svg width="105" height="30" viewBox="0 0 105 30" fill="none" xmlns="http://www.w3.org/2000/svg">
<g clip-path="url(#clip0_4644_676)">
<path d="M23.4964 0.5C23.8354 0.561981 24.1775 0.609593 24.5124 0.68876C26.6941 1.20348 28.4192 3.11475 28.715 5.34183C28.7541 5.64071 28.7736 5.94189 28.7733 6.24337C28.7766 12.0873 28.7543 17.9313 28.7856 23.775C28.7998 26.4283 26.9695 28.885 24.1954 29.4096C23.8488 29.4752 23.4886 29.4924 23.135 29.4941C17.3098 29.4988 11.4846 29.4996 5.65922 29.4966C2.8391 29.4961 0.538575 27.5093 0.0806467 24.694C0.0558109 24.5376 0.0279054 24.3815 0 24.2254V5.83543C0.020371 5.75373 0.0507879 5.67287 0.0597176 5.58976C0.319796 3.1587 2.02259 1.21672 4.38115 0.671856C4.67918 0.603114 4.98279 0.556346 5.28417 0.5H23.4964ZM12.6816 5.43988C12.4506 5.37508 12.2843 5.2838 12.1235 5.29169C11.7143 5.30945 11.3069 5.35577 10.904 5.4303C10.4403 5.51876 9.95861 5.59483 9.53445 5.78781C9.15996 5.95685 8.83291 5.94502 8.48967 5.80838C8.28568 5.72724 8.18662 5.78021 8.08085 5.95657C7.97509 6.13294 7.85761 6.31296 7.70106 6.43326C7.37345 6.68513 7.19542 6.99419 7.14937 7.40777C7.13402 7.54582 7.03412 7.69626 6.93115 7.79769C6.71209 8.01321 6.41072 8.16225 6.24272 8.40763C5.92656 8.86742 5.6715 9.37454 5.41365 9.87348C5.36314 9.97209 5.39105 10.1346 5.429 10.2524C5.55039 10.6305 5.51914 10.9956 5.39021 11.3616C5.30147 11.6151 5.10753 11.8095 5.3104 12.1504C5.4477 12.3815 5.52276 12.6556 5.73233 12.8548C5.88219 12.997 6.06162 13.1314 6.15092 13.3086C6.47071 13.9358 7.06845 14.2031 7.62544 14.5229C7.72004 14.577 7.85845 14.5778 7.97314 14.5671C8.27703 14.539 8.57925 14.4933 8.88174 14.4508C9.15633 14.4125 9.43231 14.3792 9.70411 14.3254C9.97591 14.2716 10.2458 14.1879 10.5187 14.1282C10.6911 14.0913 10.8307 14.1479 10.9093 14.3226C11.0279 14.5857 11.2163 14.6505 11.5035 14.6018C11.9698 14.5226 12.123 14.7105 12.0284 15.1768C12.0097 15.2689 12.0005 15.3653 11.9698 15.4526C11.8177 15.8673 11.9139 16.2133 12.2452 16.4933C12.5999 16.7934 12.7709 17.1976 12.8828 17.6338C12.9294 17.8155 12.9199 18.0178 12.9925 18.186C13.1108 18.4604 13.0098 18.6584 12.8845 18.8959C12.5346 19.5597 12.4101 20.2257 12.8546 20.9295C13.0586 21.2526 13.1834 21.6484 13.2568 22.0282C13.3594 22.5607 13.48 23.0579 13.8059 23.5149C14.0027 23.7904 14.1171 24.1629 14.1601 24.5049C14.2226 25.0053 14.4427 25.2174 14.935 25.1295C15.3017 25.0642 15.6722 25.0168 16.0431 24.9782C16.4009 24.9413 16.7243 24.8374 16.9579 24.5486C17.2768 24.1542 17.6055 23.764 17.8899 23.3442C18.0146 23.1605 18.0794 22.912 18.1 22.6863C18.1179 22.4891 18.1927 22.3736 18.3581 22.3401C18.6436 22.2837 18.7488 22.0882 18.7536 21.8352C18.7586 21.6124 18.7078 21.3887 18.6978 21.1647C18.6925 21.0295 18.6699 20.839 18.7424 20.7669C18.9656 20.5497 19.2109 20.3364 19.4858 20.1989C19.8332 20.0251 20.1991 19.6231 20.0961 19.1064C20.0621 18.9357 20.1008 18.7503 20.1039 18.5711C20.1053 18.4866 20.1354 18.3761 20.0941 18.3263C19.8611 18.0428 19.7997 17.7 19.7478 17.3574C19.7258 17.2117 19.7241 17.0359 19.785 16.9092C20.1458 16.1592 20.7248 15.5915 21.3756 15.1061C22.0922 14.573 22.412 13.7881 22.763 13.017C22.7929 12.9514 22.7909 12.8688 22.7948 12.7936C22.8082 12.5189 22.7209 12.4708 22.4619 12.5358C22.0283 12.6454 21.589 12.7359 21.1479 12.8083C21.0555 12.8235 20.8716 12.7438 20.8548 12.6764C20.7477 12.24 20.3676 12.0473 20.1047 11.7501C19.9602 11.5867 19.8536 11.3892 19.7258 11.2103C19.4467 10.8207 19.2419 10.4003 19.1624 9.92222C19.1551 9.87855 19.1163 9.8408 19.0937 9.79967C18.892 9.42412 18.6832 9.04773 18.479 8.67021C18.4 8.52399 18.3905 8.40623 18.5044 8.23972C18.7142 7.93292 18.6272 7.5878 18.496 7.26296C18.4834 7.23225 18.4491 7.1914 18.4215 7.18858C18.0794 7.14886 17.7199 7.03617 17.399 7.10632C17.0921 7.17881 16.7716 7.16753 16.4703 7.07364C16.1865 6.98714 15.8743 6.94911 15.6259 6.80148C15.1951 6.54539 14.7843 6.67809 14.6744 7.15787C14.657 7.23338 14.5421 7.35734 14.5069 7.34607C14.251 7.2638 13.9304 7.21816 13.7716 7.03617C13.5512 6.78261 13.2972 6.73781 13.0182 6.67189C12.8016 6.62089 12.5948 6.52764 12.3839 6.45326L12.3281 6.36677C12.8625 6.17181 12.3694 5.74302 12.6816 5.43988ZM22.5244 19.5169L22.4999 19.5093C22.4937 19.4056 22.5147 19.2901 22.4756 19.2013C22.4072 19.0467 22.302 18.9086 22.2124 18.7635C22.1036 18.8666 21.9817 18.9593 21.889 19.0754C21.7074 19.303 21.6264 19.6039 21.3044 19.7234C20.8512 19.8924 20.7591 20.0896 20.7842 20.586C20.7921 20.7404 20.7887 20.914 20.7284 21.0498C20.5805 21.3785 20.6034 21.6879 20.7443 22.004C20.8381 22.2139 20.9355 22.4395 21.1975 22.4505C21.3481 22.4564 21.4962 22.4111 21.6183 22.3219C21.7404 22.2327 21.8293 22.1048 21.8709 21.9586C22.0263 21.436 22.1709 20.9103 22.3132 20.3838C22.3899 20.0955 22.4541 19.8051 22.5244 19.5169Z" fill="#3182CE"/>
<path d="M44.0722 0.5C44.7801 0.66594 45.0929 1.20433 45.3745 1.82104C47.2112 5.8404 49.0586 9.85544 50.9165 13.8662C51.5987 15.3466 52.2799 16.8276 52.96 18.3093C53.2444 18.9314 53.1211 19.5969 52.6631 19.9964C52.2166 20.386 51.5293 20.4514 51.051 20.0927C50.8199 19.9179 50.6326 19.6907 50.5044 19.4295C49.7188 17.7687 48.9579 16.0961 48.1902 14.4265C46.9419 11.7127 45.6941 8.9987 44.4469 6.2845C44.2795 5.92135 44.1098 5.55961 43.9031 5.11532C43.6653 5.63117 43.4647 6.06193 43.2674 6.49411C42.0276 9.21169 40.7876 11.9293 39.5473 14.6468C39.3093 15.1669 38.9231 15.492 38.325 15.4827C37.739 15.4732 37.302 15.2055 37.0414 14.675C36.8511 14.2888 36.9245 13.9028 37.0955 13.5289C37.6369 12.3457 38.1792 11.1636 38.7224 9.98279C40.0061 7.19111 41.2945 4.40282 42.5633 1.60467C42.8025 1.07699 43.1273 0.683407 43.6795 0.500282L44.0722 0.5Z" fill="#3182CE"/>
<path d="M104.952 1.91915C102.627 7.73727 100.302 13.5553 97.9774 19.3732C97.7427 19.9606 97.3331 20.3215 96.6921 20.3469C96.1206 20.3694 95.6518 20.0159 95.3995 19.389C93.815 15.4557 92.233 11.5214 90.6533 7.58617C90.3941 6.94016 90.5621 6.29697 91.0633 5.93551C91.5837 5.56024 92.2894 5.55714 92.72 5.98199C92.9193 6.1792 93.0713 6.44854 93.1785 6.7128C94.299 9.47189 95.412 12.234 96.5174 14.9991C96.5556 15.0937 96.6011 15.1859 96.672 15.345C96.773 15.1044 96.8534 14.9196 96.9287 14.7328C98.7122 10.3097 100.496 5.88648 102.279 1.46331C102.492 0.934214 102.85 0.57867 103.447 0.547679C104.021 0.517816 104.467 0.754188 104.762 1.25201C104.851 1.40217 104.89 1.58191 104.952 1.74785V1.91915Z" fill="#3182CE"/>
<path d="M86.0621 15.6008C86.0169 17.0033 84.9738 18.5894 82.9981 19.5529C81.4493 20.3077 79.811 20.4652 78.1247 20.2508C76.5062 20.0451 75.0188 19.5039 73.7524 18.433C73.5236 18.2398 73.3001 18.0319 73.1126 17.7989C72.4889 17.0238 72.8743 15.9141 73.8328 15.6763C74.3387 15.5509 74.7601 15.6507 75.1332 16.0426C75.9352 16.8877 76.9596 17.2991 78.0784 17.5076C79.3603 17.7451 80.6177 17.6729 81.8177 17.134C82.8265 16.6801 83.4041 15.9056 83.3927 14.7435C83.3865 14.1079 83.1555 13.5706 82.6191 13.2596C82.0406 12.9238 81.4262 12.624 80.7924 12.4178C79.4951 11.9952 78.1693 11.6625 76.8645 11.2627C75.8992 10.9669 75.0062 10.515 74.2394 9.83658C73.1028 8.83052 72.68 7.53935 72.6806 6.04279C72.6806 3.56666 74.2916 1.84021 76.2617 1.08742C77.3408 0.674966 78.4626 0.487615 79.6187 0.562555C80.3231 0.608196 80.8499 1.2311 80.8304 1.97403C80.812 2.66483 80.2617 3.20942 79.5548 3.21534C78.6178 3.22351 77.7181 3.38888 76.8567 3.77711C75.4843 4.39692 75.1455 5.82952 75.4764 6.94912C75.6899 7.6712 76.2648 8.04787 76.8949 8.35327C78.0158 8.89363 79.2214 9.16719 80.414 9.48329C81.5908 9.79517 82.7581 10.1375 83.8129 10.777C85.307 11.6847 86.0936 12.9987 86.0621 15.6008Z" fill="#3182CE"/>
<path d="M69.3405 7.00936C69.3171 8.44281 69.0269 9.78667 68.1177 10.9358C67.4201 11.8188 66.5006 12.3978 65.4756 12.7933C64.5785 13.1393 63.645 13.388 62.7431 13.723C61.9824 14.0047 61.2083 14.2865 60.5043 14.6809C59.3995 15.299 58.8372 16.329 58.677 17.5799C58.6182 18.038 58.5889 18.5015 58.5738 18.9635C58.549 19.7354 58.0436 20.2919 57.313 20.3209C56.5543 20.3513 55.9239 19.851 55.9071 19.0849C55.8631 17.0508 56.2378 15.1339 57.6546 13.563C58.6087 12.5054 59.8203 11.8667 61.1375 11.4134C62.0123 11.1125 62.905 10.864 63.7768 10.5549C64.2511 10.3859 64.7052 10.1569 65.1547 9.92781C65.9852 9.50522 66.4303 8.80483 66.5804 7.88301C66.706 7.11191 66.6756 6.35603 66.4364 5.61733C66.0689 4.48336 65.213 3.87059 64.1482 3.49927C62.5991 2.96004 61.1592 3.2043 59.8373 4.15486C58.9675 4.78002 58.6472 5.69565 58.5894 6.73214C58.578 6.93949 58.5808 7.15192 58.5336 7.35195C58.3877 7.98105 57.8081 8.3704 57.1088 8.33124C56.5093 8.298 55.9775 7.82075 55.9345 7.19812C55.8187 5.51957 56.2853 4.0278 57.4071 2.76114C58.5001 1.52687 59.9032 0.887907 61.4882 0.638856C63.7268 0.286974 65.7181 0.874384 67.4304 2.37178C68.4799 3.2891 69.0629 4.46956 69.2432 5.85286C69.2934 6.23601 69.309 6.62367 69.3405 7.00936Z" fill="#3182CE"/>
<path d="M83.2034 3.8525C83.2009 3.08675 83.774 2.50019 84.5253 2.49878C85.301 2.49878 85.8823 3.07633 85.8829 3.85109C85.8829 4.60106 85.2913 5.19382 84.5412 5.19466C83.7866 5.19664 83.2056 4.61317 83.2034 3.8525Z" fill="#3182CE"/>
<path d="M69.3135 18.9816C69.3135 19.7501 68.7498 20.3173 67.9824 20.3226C67.2326 20.328 66.6368 19.7403 66.6312 18.99C66.6256 18.2398 67.2351 17.6273 67.9924 17.6304C68.7498 17.6335 69.314 18.2096 69.3135 18.9816Z" fill="#3182CE"/>
<path d="M89.8148 0.56202C90.5792 0.564556 91.1336 1.12802 91.1361 1.90447C91.1387 2.66514 90.5655 3.23847 89.8012 3.23706C89.0477 3.23565 88.4466 2.6412 88.45 1.90419C88.4539 1.13253 89.0365 0.559485 89.8148 0.56202Z" fill="#3182CE"/>
<path d="M36.0695 17.5973C36.2465 17.5946 36.4224 17.6274 36.5868 17.6939C36.7511 17.7603 36.9008 17.8591 37.027 17.9845C37.1533 18.1099 37.2536 18.2594 37.3221 18.4242C37.3906 18.5891 37.4259 18.766 37.4261 18.9448C37.4263 19.1236 37.3912 19.3006 37.323 19.4656C37.2548 19.6306 37.1548 19.7803 37.0288 19.9059C36.9028 20.0315 36.7533 20.1306 36.5891 20.1974C36.4248 20.2642 36.249 20.2973 36.072 20.2949C35.3275 20.2966 34.7434 19.7033 34.7406 18.9426C34.7378 18.1819 35.3146 17.5968 36.0695 17.5973Z" fill="#3182CE"/>
<path d="M35.0807 28.3165C35.0942 28.244 35.1124 28.1725 35.1352 28.1024C35.6079 26.9129 36.0795 25.7232 36.5622 24.5379C36.5957 24.4562 36.7177 24.3565 36.7925 24.361C36.8873 24.3669 37.0255 24.4506 37.0601 24.5359C37.5604 25.7646 38.0465 26.9991 38.5346 28.2328C38.5438 28.2565 38.5346 28.2875 38.5346 28.3235C38.3345 28.4061 38.2042 28.3613 38.1342 28.1379C38.0669 27.9226 37.9712 27.7153 37.8992 27.5023C37.8434 27.3352 37.744 27.2687 37.5643 27.2721C37.0595 27.2817 36.5542 27.2831 36.0493 27.2721C35.8557 27.2676 35.7602 27.3462 35.7019 27.5226C35.631 27.737 35.5345 27.9432 35.4622 28.1567C35.398 28.3475 35.2836 28.4038 35.0807 28.3165ZM37.674 26.9445C37.3869 26.2075 37.1139 25.5076 36.841 24.8075L36.7665 24.8188C36.4944 25.5158 36.2226 26.2131 35.9372 26.9445H37.674Z" fill="#3182CE"/>
<path d="M64.9446 27.6141C65.3663 27.9758 65.8429 28.1212 66.3801 28.0463C66.749 27.9953 67.0219 27.7564 67.071 27.4411C67.1246 27.0977 66.9695 26.8399 66.5779 26.6844C66.3011 26.5742 66.0078 26.5066 65.7266 26.4063C65.099 26.1823 64.8316 25.8203 64.8936 25.2969C64.9605 24.7283 65.3401 24.339 65.9791 24.3184C66.3377 24.3063 66.7046 24.4373 67.0615 24.5339C67.2499 24.5852 67.2706 24.7311 67.1349 24.8799C66.8765 24.8016 66.6251 24.6948 66.3636 24.6545C66.158 24.6235 65.9336 24.648 65.7296 24.6982C65.5871 24.7342 65.46 24.8161 65.3678 24.9316C65.2755 25.047 65.2231 25.1897 65.2184 25.338C65.2131 25.64 65.3507 25.8761 65.6311 25.986C65.9875 26.1243 66.3589 26.2221 66.7172 26.3559C67.3172 26.5796 67.5641 27.0968 67.3244 27.6958C67.237 27.9007 67.0867 28.0718 66.8958 28.184C66.2182 28.5573 65.5636 28.4283 64.9424 28.0091C64.7524 27.8809 64.8581 27.7617 64.9446 27.6141Z" fill="#3182CE"/>
<path d="M98.1951 26.9972C98.2342 27.4376 98.3974 27.7762 98.7753 27.9551C99.248 28.1785 99.6853 28.083 100.059 27.7094C100.254 27.8328 100.236 27.9464 100.083 28.0869C99.5382 28.589 98.5079 28.4377 98.1184 27.7793C97.7997 27.2403 97.7799 26.6639 98.0179 26.0926C98.2412 25.5573 98.7806 25.2499 99.2996 25.3246C99.8298 25.4006 100.291 25.877 100.385 26.4456C100.472 26.9637 100.472 26.9637 99.9501 26.9637C99.4913 26.9637 99.0326 26.9617 98.5738 26.9654C98.4555 26.9659 98.3388 26.9845 98.1951 26.9972ZM100.048 26.6803C100.064 26.5544 100.055 26.4267 100.02 26.3048C99.9851 26.1829 99.9261 26.0694 99.8464 25.9714C99.7667 25.8734 99.668 25.7928 99.5564 25.7346C99.4447 25.6764 99.3225 25.6419 99.1972 25.6331C98.7214 25.6015 98.1968 26.0557 98.2027 26.5087C98.2027 26.5664 98.2847 26.6718 98.3302 26.6727C98.9047 26.6839 99.4793 26.6803 100.048 26.6803Z" fill="#3182CE"/>
<path d="M93.0699 28.3205C92.6734 28.4467 92.8054 28.1342 92.7373 27.9446C92.4583 28.2379 92.1387 28.3878 91.743 28.365C91.2128 28.3343 90.8863 28.0235 90.8869 27.5198C90.8869 26.9963 91.1902 26.6932 91.7338 26.6797C91.985 26.6735 92.2395 26.6664 92.4912 26.6816C92.7211 26.6952 92.7624 26.5768 92.7437 26.3858C92.6804 25.7432 92.1535 25.4615 91.5019 25.7325C91.3652 25.7888 91.2405 25.8733 91.0901 25.9579L90.9656 25.7299C91.4216 25.2995 92.0609 25.2 92.5894 25.4592C92.9273 25.6251 93.0515 25.9322 93.0638 26.2706C93.0856 26.9487 93.0699 27.628 93.0699 28.3205ZM92.1675 26.94C92.1675 26.9318 92.1653 26.9236 92.1644 26.9155C91.9526 26.9436 91.7324 26.942 91.5312 27.0039C91.157 27.1194 91.0677 27.6728 91.3669 27.9283C91.7751 28.2771 92.5263 28.0692 92.7038 27.557C92.8665 27.0887 92.7644 26.9403 92.2797 26.94H92.1675Z" fill="#3182CE"/>
<path d="M49.6413 25.9318C49.4906 25.7847 49.5369 25.6695 49.725 25.5591C50.1263 25.3249 50.5479 25.2492 50.9928 25.3838C51.3385 25.4884 51.5729 25.7377 51.5869 26.0966C51.6148 26.8291 51.5952 27.5658 51.5952 28.3113C51.3801 28.38 51.3801 28.38 51.2902 27.9605C51.0003 28.2665 50.6679 28.4113 50.2555 28.3614C49.7211 28.2952 49.4387 27.9913 49.456 27.4633C49.4719 26.9866 49.7881 26.6928 50.3055 26.6806C50.5583 26.6747 50.8114 26.6711 51.0636 26.6806C51.298 26.6894 51.3561 26.5775 51.324 26.364C51.2403 25.805 50.8661 25.5331 50.3239 25.6695C50.1031 25.7253 49.895 25.8329 49.6413 25.9318ZM50.738 26.937L50.7355 26.9156C50.5334 26.9412 50.3275 26.9508 50.1302 26.9973C49.907 27.0497 49.7875 27.2148 49.7674 27.4447C49.7457 27.6791 49.8232 27.8712 50.0286 27.996C50.4776 28.2688 51.1342 28.0121 51.2844 27.5075C51.4239 27.0334 51.3569 26.937 50.8797 26.937H50.738Z" fill="#3182CE"/>
<path d="M86.9637 24.3745C87.1869 24.2942 87.3052 24.368 87.3887 24.5911C87.7584 25.5794 88.1421 26.5633 88.523 27.5465C88.5557 27.631 88.5964 27.7119 88.6662 27.8679C88.837 27.4335 88.9807 27.0721 89.1213 26.7092C89.397 25.9973 89.6755 25.2867 89.9426 24.5717C90.0163 24.3745 90.1229 24.297 90.3547 24.3832C90.1577 24.894 89.9621 25.4008 89.7687 25.9079C89.4816 26.6557 89.2003 27.4056 88.9017 28.1486C88.8663 28.2367 88.7438 28.3311 88.6522 28.3421C88.5786 28.3508 88.4469 28.2553 88.4156 28.1762C87.93 26.9495 87.4557 25.7178 86.9813 24.4866C86.9716 24.4499 86.9657 24.4124 86.9637 24.3745Z" fill="#3182CE"/>
<path d="M61.2016 26.8658C61.2038 27.9479 60.3366 28.6342 59.4067 28.2891C58.8517 28.0832 58.4783 27.4059 58.5403 26.7182C58.6011 26.0406 58.9563 25.5422 59.4938 25.3805C60.3435 25.1247 61.1402 25.7242 61.2011 26.6675C61.2055 26.7334 61.2016 26.7996 61.2016 26.8658ZM60.9097 26.8376C60.8654 26.6475 60.8441 26.4562 60.7758 26.284C60.6195 25.8913 60.3232 25.656 59.8993 25.6405C59.486 25.625 59.1824 25.8296 59.0043 26.206C58.7987 26.6418 58.7953 27.0855 59.0158 27.5149C59.1977 27.8696 59.4958 28.0747 59.8995 28.0553C60.3195 28.0353 60.6265 27.8161 60.7775 27.4163C60.8464 27.2335 60.8668 27.0326 60.9097 26.8371V26.8376Z" fill="#3182CE"/>
<path d="M77.0252 26.8229C77.0252 26.0794 77.3994 25.5233 77.9966 25.3728C78.7891 25.1731 79.5367 25.6684 79.6338 26.4879C79.6673 26.7728 79.6617 27.0796 79.5917 27.3562C79.412 28.0735 78.8644 28.4305 78.1406 28.3561C77.5615 28.2966 77.0735 27.7383 77.026 27.0782C77.0191 26.9936 77.0252 26.908 77.0252 26.8229ZM79.3472 26.8446C79.343 26.7764 79.3472 26.6708 79.3285 26.5696C79.2448 26.1329 79.035 25.7988 78.5823 25.6726C78.4059 25.6229 78.2188 25.6277 78.0451 25.6863C77.8714 25.7449 77.719 25.8546 77.6076 26.0014C77.2501 26.4572 77.2356 27.2083 77.5797 27.6678C77.7583 27.9056 77.993 28.0425 78.296 28.0507C78.9116 28.0673 79.3333 27.5985 79.3472 26.8446Z" fill="#3182CE"/>
<path d="M103.771 25.3352C103.561 25.8753 103.362 26.3888 103.162 26.9022C102.913 27.5425 102.671 28.186 102.411 28.8224C102.21 29.3155 101.909 29.5287 101.485 29.4918C101.365 29.4787 101.25 29.4414 101.144 29.382C100.939 29.2693 100.941 29.2431 101.114 29.0061C101.182 29.0453 101.249 29.0906 101.322 29.1253C101.525 29.2219 101.72 29.2118 101.898 29.0619C102.173 28.83 102.285 28.3858 102.154 28.0502C101.842 27.2529 101.53 26.4556 101.218 25.6583C101.187 25.5808 101.165 25.5003 101.134 25.4087C101.354 25.2847 101.447 25.4045 101.515 25.5794C101.777 26.2556 102.039 26.9309 102.301 27.6054C102.334 27.6899 102.375 27.7724 102.441 27.9178C102.51 27.7637 102.558 27.6688 102.596 27.5701C102.847 26.9222 103.102 26.2728 103.346 25.6206C103.416 25.4332 103.519 25.3228 103.771 25.3352Z" fill="#3182CE"/>
<path d="M81.2327 25.8084C81.3932 25.6794 81.5249 25.5382 81.6851 25.4509C82.359 25.0846 83.0982 25.4433 83.2584 26.2034C83.2808 26.3044 83.2929 26.4075 83.2947 26.511C83.298 27.1137 83.2963 27.7163 83.2963 28.3353L82.9835 28.3544C82.9835 27.8755 82.9871 27.416 82.9818 26.9559C82.9834 26.7393 82.9703 26.5228 82.9428 26.3079C82.887 25.9417 82.6754 25.7163 82.301 25.6599C81.9357 25.6064 81.6125 25.7047 81.4253 26.0262C81.3076 26.2384 81.2392 26.4748 81.2252 26.7176C81.1951 27.1883 81.2221 27.6625 81.2096 28.1349C81.2076 28.2088 81.1323 28.3271 81.07 28.3434C80.9082 28.386 80.8995 28.2527 80.899 28.1318C80.897 27.3092 80.8912 26.4865 80.8951 25.6639C80.8951 25.5512 80.8281 25.3579 81.0419 25.3754C81.0977 25.3802 81.1445 25.5481 81.1886 25.6442C81.2079 25.6976 81.2226 25.7525 81.2327 25.8084Z" fill="#3182CE"/>
<path d="M55.2829 24.6643V24.36C55.404 24.3544 55.522 24.3448 55.6401 24.3445C56.36 24.3417 57.0801 24.3404 57.8003 24.3406C57.9267 24.3406 58.0829 24.3051 58.0748 24.5178C58.067 24.7201 57.9119 24.6587 57.803 24.6609C57.5788 24.672 57.3541 24.6713 57.13 24.659C56.8877 24.6404 56.823 24.7508 56.8255 24.9742C56.8342 25.956 56.8328 26.9382 56.8347 27.92C56.8347 27.9955 56.8548 28.0795 56.8283 28.1454C56.7968 28.2229 56.7251 28.284 56.6709 28.3522C56.6173 28.2848 56.5211 28.2198 56.518 28.1502C56.5021 27.8017 56.5105 27.4518 56.5105 27.1027C56.5105 26.404 56.4985 25.705 56.5163 25.0066C56.5236 24.7249 56.424 24.6432 56.1605 24.6609C55.8739 24.6792 55.5854 24.6643 55.2829 24.6643Z" fill="#3182CE"/>
<path d="M48.2412 26.0584C47.8469 25.6358 47.4802 25.54 47.0513 25.7339C46.6526 25.9142 46.3861 26.4362 46.4349 26.9416C46.5055 27.6688 46.9339 28.1097 47.5612 28.0308C47.8084 27.9995 48.0381 27.8257 48.3445 27.6854C48.4636 27.7347 48.4918 27.8398 48.3249 28.0165C47.7947 28.5779 46.822 28.474 46.3716 27.7992C45.7671 26.8918 46.1852 25.5893 47.1658 25.351C47.6058 25.2439 47.9965 25.3654 48.3241 25.6863C48.4921 25.8494 48.4857 25.9722 48.2412 26.0584Z" fill="#3182CE"/>
<path d="M76.0013 27.6911C76.1515 27.7539 76.1163 27.8762 75.9639 28.0342C75.4965 28.5191 74.5687 28.4748 74.1292 27.9401C73.65 27.3561 73.6338 26.3988 74.0932 25.8066C74.5784 25.1808 75.6001 25.1476 76.0242 25.7502C76.0625 25.8049 76.0337 25.9071 76.0362 25.9871C75.9628 25.9821 75.8601 26.0069 75.8208 25.9671C75.4633 25.6065 75.0651 25.5327 74.6209 25.7775C74.2517 25.9815 74.0234 26.5269 74.0907 27.0076C74.1867 27.6936 74.6027 28.1063 75.1952 28.0308C75.4449 27.9996 75.6768 27.8333 76.0013 27.6911Z" fill="#3182CE"/>
<path d="M40.7648 25.6398C40.5896 25.6398 40.4221 25.6491 40.2561 25.6375C40.0329 25.6218 39.9597 25.7249 39.9614 25.939C39.9676 26.6754 39.9637 27.4122 39.9614 28.1486C39.9614 28.205 39.9519 28.2596 39.9463 28.3177C39.7181 28.4056 39.6394 28.334 39.6433 28.0962C39.6525 27.3978 39.6394 26.6988 39.6486 26.0001C39.6517 25.7694 39.6274 25.6077 39.3383 25.6361C39.2897 25.6409 39.2314 25.5454 39.1776 25.4953C39.2334 25.4499 39.2942 25.3606 39.345 25.366C39.6455 25.3981 39.6536 25.2209 39.6489 24.9958C39.6349 24.3607 39.9475 24.0275 40.5039 24.0686C40.5678 24.0731 40.6459 24.0762 40.6906 24.1131C40.7707 24.179 40.8301 24.2706 40.8985 24.3514C40.8025 24.3596 40.6978 24.3974 40.6127 24.3706C40.3928 24.3019 40.183 24.3458 40.1035 24.5396C40.0164 24.7515 40.0223 25.0039 40.0024 25.24C40.0008 25.2617 40.1051 25.3096 40.1632 25.3155C40.293 25.3289 40.4236 25.3316 40.5538 25.3237C40.7609 25.3124 40.8335 25.3975 40.7648 25.6398Z" fill="#3182CE"/>
<path d="M94.8051 28.3291C94.5989 28.3999 94.5194 28.3162 94.5196 28.1181C94.5196 26.8503 94.5168 25.5848 94.5272 24.3181C94.5272 24.2421 94.6343 24.1669 94.6915 24.0911C94.7395 24.1545 94.8285 24.2178 94.8288 24.2815C94.8358 25.5952 94.833 26.9092 94.8305 28.2232C94.8263 28.2594 94.8178 28.295 94.8051 28.3291Z" fill="#3182CE"/>
<path d="M70.7573 26.2186C70.7573 26.8415 70.764 27.4647 70.7498 28.0876C70.7478 28.1766 70.646 28.2634 70.5904 28.3513C70.5385 28.262 70.442 28.1733 70.4411 28.0834C70.4311 26.8469 70.4333 25.6103 70.4361 24.3736C70.4361 24.2609 70.4001 24.0851 70.5907 24.12C70.6594 24.1324 70.7478 24.2865 70.7501 24.3781C70.764 24.9911 70.7573 25.605 70.7573 26.2186Z" fill="#3182CE"/>
<path d="M96.6343 26.2717C96.6343 26.8848 96.6398 27.4981 96.6276 28.1109C96.6259 28.192 96.5335 28.2712 96.483 28.3515C96.4272 28.2709 96.3287 28.1917 96.3262 28.1094C96.3108 27.6305 96.3184 27.1479 96.3184 26.6667C96.3184 25.9032 96.3131 25.1397 96.3256 24.3765C96.3273 24.2858 96.428 24.197 96.483 24.1072C96.5372 24.197 96.6365 24.2858 96.6385 24.3765C96.6521 25.0082 96.6457 25.6401 96.6457 26.2717H96.6343Z" fill="#3182CE"/>
<path d="M42.4693 25.8243C42.7484 25.5113 43.0235 25.3172 43.4064 25.3307C43.4773 25.528 43.4583 25.646 43.2186 25.6928C42.781 25.7773 42.5092 26.1024 42.4864 26.569C42.4612 27.0778 42.4679 27.5877 42.4518 28.0971C42.449 28.1816 42.4213 28.3081 42.3664 28.3357C42.2464 28.3957 42.1501 28.3374 42.1501 28.1813C42.1501 27.3034 42.1465 26.4253 42.156 25.5474C42.156 25.4857 42.2525 25.4248 42.3041 25.3634C42.3505 25.4285 42.4082 25.4885 42.4398 25.5606C42.464 25.6161 42.4559 25.6869 42.4693 25.8243Z" fill="#3182CE"/>
<path d="M72.5578 28.3415H72.2229C72.2229 28.0316 72.2229 27.731 72.2229 27.4318C72.2229 26.8266 72.2159 26.2203 72.2291 25.6166C72.231 25.525 72.3128 25.3692 72.3789 25.3577C72.5706 25.3233 72.5589 25.4864 72.5589 25.6225C72.5572 26.519 72.5578 27.4154 72.5578 28.3415Z" fill="#3182CE"/>
<path d="M44.5865 26.8658C44.5865 26.4505 44.5792 26.0353 44.5924 25.6205C44.5951 25.5329 44.6588 25.3867 44.7188 25.3726C44.8884 25.3329 44.9002 25.4718 44.8999 25.6062C44.8975 26.4461 44.8975 27.2859 44.8999 28.1254C44.8999 28.244 44.8999 28.3843 44.738 28.3429C44.6716 28.326 44.594 28.1936 44.5912 28.1111C44.5762 27.6963 44.5843 27.2811 44.5843 26.8658H44.5865Z" fill="#3182CE"/>
<path d="M68.9518 26.8593C68.9518 27.2751 68.9518 27.6909 68.9518 28.1068C68.9518 28.2316 68.9518 28.3885 68.7727 28.3451C68.7085 28.3299 68.6332 28.1899 68.6312 28.1059C68.621 27.2737 68.621 26.4414 68.6312 25.6092C68.6312 25.5247 68.7255 25.4441 68.7763 25.3616C68.8279 25.4447 68.9214 25.5261 68.9248 25.6112C68.9404 26.0267 68.9318 26.4431 68.9318 26.8593H68.9518Z" fill="#3182CE"/>
<path d="M72.7336 24.3359C72.576 24.4705 72.4858 24.6072 72.4041 24.6021C72.3139 24.5965 72.166 24.4612 72.1638 24.3812C72.1613 24.2925 72.2838 24.1485 72.3762 24.1246C72.4512 24.1054 72.562 24.2279 72.7336 24.3359Z" fill="#3182CE"/>
<path d="M69.1265 24.3718C68.9608 24.4882 68.8578 24.615 68.7769 24.6023C68.6884 24.5882 68.555 24.4406 68.5603 24.3589C68.5659 24.2704 68.6999 24.1369 68.7939 24.1239C68.8706 24.1129 68.9689 24.2473 69.1265 24.3718Z" fill="#3182CE"/>
<path d="M45.0804 24.3665C44.913 24.4871 44.8111 24.6161 44.733 24.6026C44.6403 24.5866 44.5027 24.4457 44.5055 24.3629C44.5083 24.2755 44.6451 24.1406 44.7388 24.124C44.8161 24.1107 44.916 24.2431 45.0804 24.3665Z" fill="#3182CE"/>
</g>
<defs>
<clipPath id="clip0_4644_676">
<rect width="104.952" height="29" fill="white" transform="translate(0 0.5)"/>
</clipPath>
</defs>
</svg>
