<svg width="506" height="440" viewBox="0 0 506 440" fill="none" xmlns="http://www.w3.org/2000/svg">
<g clip-path="url(#clip0_38_813)">
<path d="M221.154 363.902H10.0256C7.36758 363.899 4.81927 362.883 2.93975 361.077C1.06022 359.27 0.00299144 356.821 0 354.266V78.7889C0.00299145 76.2341 1.06022 73.7848 2.93975 71.9783C4.81927 70.1719 7.36758 69.1557 10.0256 69.1528H221.154C223.812 69.1557 226.36 70.1719 228.24 71.9783C230.119 73.7848 231.176 76.2341 231.179 78.7889V354.266C231.176 356.821 230.119 359.27 228.24 361.077C226.36 362.883 223.812 363.899 221.154 363.902Z" fill="white"/>
<path d="M106.072 140.847C106.072 148.803 103.454 156.555 98.5909 162.993C93.7284 169.432 86.8712 174.227 79.0008 176.693C78.7655 176.764 78.5303 176.836 78.2913 176.905C77.2718 177.206 76.238 177.463 75.1864 177.683C73.2832 178.08 71.3515 178.337 69.4078 178.454C68.563 178.508 67.7134 178.536 66.8589 178.536C62.4443 178.54 58.0606 177.826 53.8936 176.425C53.7724 176.384 53.6513 176.343 53.5336 176.302C46.7821 173.958 40.8294 169.879 36.3241 164.507C31.8188 159.136 28.9337 152.679 27.9834 145.841C27.033 139.002 28.0537 132.044 30.9343 125.724C33.815 119.405 38.445 113.966 44.3198 110.002C50.1946 106.037 57.0889 103.698 64.2514 103.24C71.4139 102.782 78.5698 104.223 84.9394 107.404C91.309 110.586 96.6478 115.386 100.374 121.283C104.101 127.18 106.071 133.947 106.072 140.847Z" fill="white"/>
<path d="M65.9195 165.817C76.4563 165.817 84.9982 157.607 84.9982 147.48C84.9982 137.353 76.4563 129.143 65.9195 129.143C55.3826 129.143 46.8408 137.353 46.8408 147.48C46.8408 157.607 55.3826 165.817 65.9195 165.817Z" fill="url(#paint0_linear_38_813)"/>
<path d="M67.0333 157.36L67.0531 156.675C65.7267 156.639 64.5574 156.559 63.6787 155.942C63.4296 155.757 63.2248 155.523 63.0783 155.255C62.9318 154.988 62.8471 154.693 62.8298 154.391C62.8143 154.206 62.8434 154.021 62.9147 153.849C62.9859 153.677 63.0975 153.523 63.2407 153.399C63.5727 153.206 63.9528 153.102 64.341 153.098C64.7292 153.095 65.1112 153.193 65.4466 153.38L66.0365 153.64L64.9053 145.695L64.199 145.788L65.1612 152.546C64.7673 152.406 64.3431 152.363 63.9273 152.42C63.5115 152.478 63.1172 152.634 62.7805 152.876C62.554 153.066 62.3763 153.304 62.2613 153.571C62.1462 153.838 62.097 154.127 62.1173 154.415C62.1382 154.821 62.2511 155.217 62.4481 155.577C62.6452 155.936 62.9217 156.25 63.2582 156.496C64.3871 157.289 65.8543 157.328 67.0333 157.36Z" fill="#E6E6E6"/>
<path d="M60.7057 146.37H56.8658V147.056H60.7057V146.37Z" fill="#E6E6E6"/>
<path d="M72.8261 146.37H68.9863V147.056H72.8261V146.37Z" fill="#E6E6E6"/>
<path d="M71.3399 173.115C71.3904 172.89 71.4167 172.661 71.4184 172.43C71.4169 171.567 71.0597 170.74 70.4249 170.13C69.7901 169.52 68.9295 169.177 68.0318 169.175H63.041C62.1431 169.176 61.2821 169.519 60.6472 170.129C60.0123 170.74 59.6552 171.567 59.6544 172.43C59.6542 172.662 59.6805 172.893 59.7327 173.119C57.8487 173.689 56.0679 174.537 54.4533 175.63C54.1395 175.839 53.8295 176.065 53.5336 176.302C53.6512 176.343 53.7724 176.384 53.8936 176.425C58.0606 177.826 62.4442 178.54 66.8589 178.536C67.7144 178.536 68.564 178.508 69.4077 178.454C71.3514 178.337 73.2831 178.08 75.1863 177.683C76.238 177.463 77.2718 177.206 78.2913 176.905C76.2742 175.19 73.9064 173.899 71.3399 173.115Z" fill="#2F2E41"/>
<path d="M70.6983 178.018C70.2356 178.051 69.7903 178.201 69.4078 178.454C71.3515 178.337 73.2832 178.08 75.1864 177.683L70.6983 178.018Z" fill="#2F2E41"/>
<path d="M83.2227 143.124L50.079 131.47C49.7238 131.345 49.4348 131.09 49.2756 130.76C49.1163 130.431 49.0998 130.054 49.2297 129.712L49.3419 129.203C51.9303 122.402 60.5098 118.122 67.5853 120.61L77.7844 124.196C84.8599 126.684 87.9352 134.737 85.3467 141.537L85.0516 142.308C84.9217 142.649 84.656 142.927 84.313 143.08C83.97 143.233 83.5778 143.249 83.2227 143.124Z" fill="#1E2147"/>
<path d="M85.008 143.77C38.8122 145.409 34.7757 139.83 48.8512 131.057L51.8373 125.776L86.0597 137.768L85.008 143.77Z" fill="#4451BC"/>
<path d="M75.9499 123.36C76.2049 122.544 75.1125 121.508 73.5098 121.045C71.9072 120.582 70.4012 120.867 70.1462 121.683C69.8911 122.498 70.9836 123.535 72.5862 123.998C74.1889 124.461 75.6948 124.175 75.9499 123.36Z" fill="#2F2E41"/>
<path d="M66.8589 179.564C62.3238 179.569 57.8205 178.835 53.54 177.395L53.1679 177.268C44.2016 174.153 36.6752 168.083 31.9272 160.137C27.1791 152.191 25.5173 142.884 27.2371 133.871C28.957 124.858 33.9471 116.723 41.3199 110.914C48.6928 105.104 57.9705 101.997 67.5031 102.143C77.0357 102.29 86.2053 105.681 93.3811 111.714C100.557 117.747 105.274 126.031 106.693 135.092C108.112 144.154 106.141 153.405 101.131 161.201C96.1213 168.997 88.3967 174.833 79.3314 177.67C79.0781 177.748 78.8396 177.82 78.5973 177.89C77.5848 178.189 76.5105 178.458 75.413 178.687C73.4568 179.095 71.4713 179.36 69.4735 179.479C68.6152 179.535 67.7333 179.564 66.8589 179.564ZM66.8589 104.185C57.8831 104.186 49.1951 107.229 42.3231 112.779C35.451 118.329 30.835 126.03 29.2869 134.528C27.7388 143.025 29.3577 151.776 33.859 159.239C38.3602 166.703 45.4554 172.403 53.8968 175.335L54.25 175.456C58.3024 176.819 62.5656 177.513 66.8589 177.508C67.6855 177.508 68.5187 177.481 69.3356 177.428C71.2275 177.315 73.1077 177.064 74.9602 176.678C75.9984 176.462 77.0134 176.207 77.9768 175.923C78.2154 175.854 78.4418 175.785 78.6684 175.716C87.3025 173.013 94.6504 167.438 99.3911 159.994C104.132 152.55 105.954 143.725 104.531 135.105C103.108 126.485 98.5327 118.636 91.6273 112.968C84.7219 107.301 75.9395 104.186 66.8589 104.185Z" fill="#CCCCCC"/>
<path d="M221.154 363.902H10.0256C7.36758 363.899 4.81927 362.883 2.93975 361.077C1.06022 359.27 0.00299144 356.821 0 354.266V78.7889C0.00299145 76.2341 1.06022 73.7848 2.93975 71.9783C4.81927 70.1719 7.36758 69.1557 10.0256 69.1528H221.154C223.812 69.1557 226.36 70.1719 228.24 71.9783C230.119 73.7848 231.176 76.2341 231.179 78.7889V354.266C231.176 356.821 230.119 359.27 228.24 361.077C226.36 362.883 223.812 363.899 221.154 363.902ZM10.0256 70.2865C7.6803 70.289 5.43181 71.1856 3.77341 72.7796C2.11501 74.3735 1.18215 76.5347 1.17949 78.7889V354.266C1.18214 356.52 2.11499 358.681 3.77339 360.275C5.43179 361.869 7.6803 362.766 10.0256 362.769H221.154C223.499 362.766 225.748 361.869 227.406 360.275C229.064 358.681 229.997 356.52 230 354.266V78.7889C229.997 76.5347 229.064 74.3735 227.406 72.7796C225.748 71.1856 223.499 70.289 221.154 70.2865H10.0256Z" fill="#CCCCCC"/>
<path d="M180.282 140.7H120.54C119.287 140.698 118.087 140.219 117.202 139.367C116.317 138.516 115.819 137.361 115.819 136.157C115.819 134.953 116.317 133.799 117.202 132.947C118.087 132.095 119.287 131.616 120.54 131.615H180.282C180.903 131.614 181.518 131.731 182.092 131.959C182.666 132.187 183.188 132.521 183.628 132.943C184.067 133.365 184.416 133.866 184.654 134.418C184.892 134.969 185.014 135.56 185.014 136.157C185.014 136.754 184.892 137.345 184.654 137.897C184.416 138.448 184.067 138.949 183.628 139.371C183.188 139.793 182.666 140.128 182.092 140.356C181.518 140.584 180.903 140.701 180.282 140.7Z" fill="#E6E6E6"/>
<path d="M199.778 156.031H120.54C119.287 156.03 118.087 155.55 117.202 154.699C116.317 153.847 115.819 152.692 115.819 151.489C115.819 150.285 116.317 149.13 117.202 148.278C118.087 147.427 119.287 146.947 120.54 146.946H199.778C201.03 146.947 202.231 147.427 203.116 148.278C204.001 149.13 204.498 150.285 204.498 151.489C204.498 152.692 204.001 153.847 203.116 154.699C202.231 155.55 201.03 156.03 199.778 156.031Z" fill="#E6E6E6"/>
<path d="M180.195 214.833H31.4017C30.7805 214.834 30.1653 214.717 29.5912 214.489C29.0171 214.261 28.4954 213.926 28.0559 213.504C27.6164 213.083 27.2677 212.582 27.0298 212.03C26.792 211.479 26.6695 210.887 26.6695 210.29C26.6695 209.693 26.792 209.102 27.0298 208.551C27.2677 207.999 27.6164 207.498 28.0559 207.076C28.4954 206.654 29.0171 206.32 29.5912 206.092C30.1653 205.864 30.7805 205.747 31.4017 205.748H180.195C181.447 205.749 182.648 206.229 183.533 207.08C184.418 207.932 184.915 209.087 184.915 210.29C184.915 211.494 184.418 212.649 183.533 213.501C182.648 214.352 181.447 214.832 180.195 214.833Z" fill="#E6E6E6"/>
<path d="M199.691 230.164H31.4017C30.7805 230.165 30.1653 230.048 29.5912 229.82C29.0171 229.592 28.4954 229.258 28.0559 228.836C27.6164 228.414 27.2677 227.913 27.0298 227.361C26.792 226.81 26.6695 226.219 26.6695 225.622C26.6695 225.025 26.792 224.434 27.0298 223.882C27.2677 223.331 27.6164 222.829 28.0559 222.408C28.4954 221.986 29.0171 221.651 29.5912 221.423C30.1653 221.195 30.7805 221.078 31.4017 221.079H199.691C200.312 221.078 200.927 221.195 201.501 221.423C202.075 221.651 202.597 221.986 203.037 222.408C203.476 222.829 203.825 223.331 204.063 223.882C204.3 224.434 204.423 225.025 204.423 225.622C204.423 226.219 204.3 226.81 204.063 227.361C203.825 227.913 203.476 228.414 203.037 228.836C202.597 229.258 202.075 229.592 201.501 229.82C200.927 230.048 200.312 230.165 199.691 230.164Z" fill="#E6E6E6"/>
<path d="M180.195 265.401H31.4017C30.1482 265.401 28.9461 264.923 28.0597 264.071C27.1734 263.219 26.6754 262.064 26.6754 260.859C26.6754 259.654 27.1734 258.499 28.0597 257.647C28.9461 256.795 30.1482 256.316 31.4017 256.316H180.195C181.448 256.316 182.651 256.795 183.537 257.647C184.423 258.499 184.921 259.654 184.921 260.859C184.921 262.064 184.423 263.219 183.537 264.071C182.651 264.923 181.448 265.401 180.195 265.401Z" fill="#E6E6E6"/>
<path d="M199.691 280.733H31.4017C30.1482 280.733 28.9461 280.254 28.0597 279.402C27.1734 278.55 26.6754 277.395 26.6754 276.19C26.6754 274.985 27.1734 273.83 28.0597 272.978C28.9461 272.126 30.1482 271.648 31.4017 271.648H199.691C200.944 271.648 202.146 272.126 203.033 272.978C203.919 273.83 204.417 274.985 204.417 276.19C204.417 277.395 203.919 278.55 203.033 279.402C202.146 280.254 200.944 280.733 199.691 280.733Z" fill="#E6E6E6"/>
<path d="M180.195 315.97H31.4017C30.1482 315.97 28.9461 315.491 28.0597 314.639C27.1734 313.788 26.6754 312.632 26.6754 311.427C26.6754 310.223 27.1734 309.067 28.0597 308.215C28.9461 307.363 30.1482 306.885 31.4017 306.885H180.195C181.448 306.885 182.651 307.363 183.537 308.215C184.423 309.067 184.921 310.223 184.921 311.427C184.921 312.632 184.423 313.788 183.537 314.639C182.651 315.491 181.448 315.97 180.195 315.97Z" fill="#E6E6E6"/>
<path d="M199.691 331.301H31.4017C30.1482 331.301 28.9461 330.823 28.0597 329.971C27.1734 329.119 26.6754 327.963 26.6754 326.759C26.6754 325.554 27.1734 324.398 28.0597 323.547C28.9461 322.695 30.1482 322.216 31.4017 322.216H199.691C200.944 322.216 202.146 322.695 203.033 323.547C203.919 324.398 204.417 325.554 204.417 326.759C204.417 327.963 203.919 329.119 203.033 329.971C202.146 330.823 200.944 331.301 199.691 331.301Z" fill="#E6E6E6"/>
<path d="M495.974 294.749L284.846 294.75C282.188 294.747 279.64 293.73 277.76 291.924C275.881 290.118 274.824 287.668 274.821 285.113L274.82 9.63621C274.823 7.08145 275.881 4.63216 277.76 2.82568C279.64 1.01919 282.188 0.00303653 284.846 0.000159484L495.974 0C498.632 0.00287335 501.18 1.01901 503.06 2.8255C504.939 4.63198 505.997 7.08127 506 9.63603L506 285.113C505.997 287.668 504.94 290.117 503.06 291.924C501.181 293.73 498.632 294.746 495.974 294.749Z" fill="white"/>
<path d="M495.974 294.749L284.846 294.75C282.188 294.747 279.64 293.73 277.76 291.924C275.881 290.118 274.824 287.668 274.821 285.113L274.82 9.63621C274.823 7.08146 275.881 4.63216 277.76 2.82568C279.64 1.01919 282.188 0.00303653 284.846 0.000159484L495.974 0C498.632 0.00287335 501.18 1.01901 503.06 2.8255C504.939 4.63198 505.997 7.08127 506 9.63603L506 285.113C505.997 287.668 504.94 290.117 503.06 291.924C501.181 293.73 498.632 294.746 495.974 294.749ZM284.846 1.13381C282.501 1.13637 280.252 2.03298 278.594 3.62693C276.935 5.22089 276.002 7.38202 276 9.63621L276 285.113C276.003 287.368 276.936 289.529 278.594 291.123C280.252 292.717 282.501 293.613 284.846 293.616L495.974 293.616C498.32 293.613 500.568 292.717 502.227 291.123C503.885 289.529 504.818 287.368 504.82 285.113L504.82 9.63604C504.818 7.38185 503.885 5.22072 502.226 3.62676C500.568 2.03281 498.319 1.1362 495.974 1.13365L284.846 1.13381Z" fill="#CCCCCC"/>
<path d="M380.992 71.3183C380.992 78.7725 378.692 86.0594 374.383 92.2573C370.074 98.4553 363.95 103.286 356.785 106.139C349.619 108.991 341.735 109.738 334.128 108.283C326.522 106.829 319.535 103.24 314.05 97.9687C308.566 92.6977 304.832 85.9821 303.319 78.6711C301.806 71.3601 302.582 63.782 305.55 56.8952C308.518 50.0084 313.544 44.1221 319.993 39.9808C326.441 35.8394 334.023 33.6289 341.778 33.6289C352.177 33.6321 362.149 37.6039 369.503 44.6714C376.856 51.7388 380.988 61.3234 380.992 71.3183Z" fill="white"/>
<path d="M359.902 77.7673C359.474 101.872 322.169 101.868 321.745 77.7665C322.173 53.663 359.477 53.6667 359.902 77.7673Z" fill="url(#paint1_linear_38_813)"/>
<path d="M340.066 85.249L340.046 84.5637C344.96 85.1943 346.018 79.3409 341.063 81.5292L342.194 73.5835L342.9 73.6765L341.938 80.4354C347.156 79.6889 345.226 85.9338 340.066 85.249Z" fill="#E6E6E6"/>
<path d="M350.233 74.2594H346.394V74.9446H350.233V74.2594Z" fill="#E6E6E6"/>
<path d="M338.113 74.2594H334.273V74.9446H338.113V74.2594Z" fill="#E6E6E6"/>
<path d="M347.008 103.406C347.757 98.5505 341.843 99.5099 338.713 99.4619C338.208 99.4635 337.71 99.5731 337.255 99.783C336.8 99.9929 336.4 100.298 336.083 100.675C335.766 101.053 335.54 101.493 335.423 101.965C335.306 102.437 335.299 102.928 335.405 103.402C332.982 104.122 330.739 105.311 328.813 106.897C336.928 109.617 345.745 109.71 353.92 107.164C351.927 105.444 349.569 104.162 347.008 103.406Z" fill="#2F2E41"/>
<path d="M331.854 69.0942C335.389 67.1302 339.677 68.637 343.329 69.4608C350.259 71.5081 359.976 68.9444 360.819 61.0106C361.696 53.6321 351.194 49.5198 347.837 56.8636L348.815 56.7408C337.929 41.1915 318.993 41.7812 319.118 63.1588C319.077 63.8192 320.147 63.817 320.187 63.1584C319.786 50.5609 328.461 41.9497 340.722 50.0453C343.461 52.1059 345.875 54.5357 347.891 57.2596C349.168 58.6351 349.446 52.7114 355.558 54.2629C362.284 56.7676 360.089 66.0249 354.077 68.0572C346.649 71.7049 338.603 64.6324 331.314 68.2063C331.196 68.2775 331.112 68.3897 331.08 68.5193C331.047 68.6489 331.067 68.7857 331.137 68.9009C331.207 69.0161 331.321 69.1006 331.455 69.1367C331.588 69.1727 331.731 69.1575 331.854 69.0942Z" fill="#2F2E41"/>
<path d="M341.778 110.036C331.652 110.027 321.901 106.351 314.47 99.7386C307.039 93.1267 302.474 84.0654 301.686 74.362C300.898 64.6586 303.944 55.0262 310.217 47.3858C316.491 39.7455 325.53 34.6588 335.532 33.1401C345.535 31.6214 355.765 33.7825 364.183 39.1922C372.601 44.602 378.589 52.8629 380.951 62.3273C383.313 71.7918 381.876 81.7642 376.928 90.2558C371.979 98.7474 363.882 105.134 354.251 108.142C350.223 109.401 346.014 110.04 341.778 110.036ZM341.778 34.6568C334.233 34.6558 326.856 36.8055 320.582 40.8341C314.307 44.8627 309.417 50.5892 306.529 57.2894C303.641 63.9896 302.885 71.3624 304.357 78.4755C305.828 85.5887 309.462 92.1225 314.797 97.2508C320.133 102.379 326.931 105.871 334.332 107.286C341.733 108.7 349.403 107.974 356.375 105.198C363.346 102.422 369.304 97.7217 373.495 91.6911C377.687 85.6605 379.923 78.5707 379.922 71.3183C379.911 61.5984 375.888 52.2798 368.737 45.4068C361.587 38.5339 351.891 34.6678 341.778 34.6568Z" fill="#CCCCCC"/>
<path d="M455.102 71.547L395.36 71.5471C394.107 71.5471 392.905 71.0685 392.018 70.2166C391.132 69.3647 390.634 68.2092 390.634 67.0045C390.634 65.7997 391.132 64.6443 392.018 63.7924C392.905 62.9405 394.107 62.4619 395.36 62.4619L455.102 62.4618C456.356 62.4618 457.558 62.9404 458.444 63.7923C459.331 64.6442 459.829 65.7997 459.829 67.0044C459.829 68.2092 459.331 69.3646 458.444 70.2165C457.558 71.0684 456.356 71.547 455.102 71.547Z" fill="#E6E6E6"/>
<path d="M474.598 86.8783L395.36 86.8784C394.739 86.8791 394.124 86.7621 393.55 86.5342C392.976 86.3062 392.454 85.9718 392.015 85.5499C391.575 85.128 391.226 84.6269 390.988 84.0754C390.751 83.5239 390.628 82.9328 390.628 82.3358C390.628 81.7387 390.751 81.1476 390.988 80.5961C391.226 80.0446 391.575 79.5436 392.015 79.1217C392.454 78.6998 392.976 78.3653 393.55 78.1373C394.124 77.9094 394.739 77.7924 395.36 77.7932L474.598 77.7931C475.852 77.7931 477.054 78.2717 477.94 79.1236C478.826 79.9755 479.324 81.1309 479.324 82.3357C479.324 83.5405 478.826 84.6959 477.94 85.5478C477.054 86.3997 475.852 86.8783 474.598 86.8783Z" fill="#E6E6E6"/>
<path d="M455.015 145.68L306.222 145.68C304.97 145.679 303.769 145.2 302.884 144.348C301.999 143.496 301.502 142.342 301.502 141.138C301.502 139.934 301.999 138.779 302.884 137.928C303.769 137.076 304.97 136.597 306.222 136.595L455.015 136.595C456.269 136.595 457.471 137.074 458.357 137.925C459.244 138.777 459.742 139.933 459.742 141.138C459.742 142.342 459.244 143.498 458.357 144.35C457.471 145.202 456.269 145.68 455.015 145.68Z" fill="#E6E6E6"/>
<path d="M474.511 161.011L306.222 161.012C305.601 161.012 304.986 160.895 304.412 160.667C303.838 160.439 303.316 160.105 302.876 159.683C302.437 159.261 302.088 158.76 301.85 158.209C301.612 157.657 301.49 157.066 301.49 156.469C301.49 155.872 301.612 155.281 301.85 154.729C302.088 154.178 302.437 153.677 302.876 153.255C303.316 152.833 303.838 152.499 304.412 152.271C304.986 152.043 305.601 151.926 306.222 151.926L474.511 151.926C475.765 151.926 476.967 152.405 477.853 153.257C478.74 154.109 479.237 155.264 479.237 156.469C479.237 157.674 478.74 158.829 477.853 159.681C476.967 160.533 475.765 161.011 474.511 161.011Z" fill="#E6E6E6"/>
<path d="M455.015 196.249L306.222 196.249C304.97 196.247 303.769 195.768 302.884 194.916C301.999 194.065 301.502 192.91 301.502 191.706C301.502 190.502 301.999 189.348 302.884 188.496C303.769 187.644 304.97 187.165 306.222 187.164L455.015 187.163C456.269 187.163 457.471 187.642 458.357 188.494C459.244 189.346 459.742 190.501 459.742 191.706C459.742 192.911 459.244 194.066 458.357 194.918C457.471 195.77 456.269 196.249 455.015 196.249Z" fill="#E6E6E6"/>
<path d="M474.511 211.58L306.222 211.58C305.601 211.581 304.986 211.464 304.412 211.236C303.838 211.008 303.316 210.673 302.876 210.252C302.437 209.83 302.088 209.329 301.85 208.777C301.612 208.226 301.49 207.635 301.49 207.037C301.49 206.44 301.612 205.849 301.85 205.298C302.088 204.746 302.437 204.245 302.876 203.823C303.316 203.401 303.838 203.067 304.412 202.839C304.986 202.611 305.601 202.494 306.222 202.495L474.511 202.495C475.765 202.495 476.967 202.973 477.853 203.825C478.74 204.677 479.238 205.833 479.238 207.037C479.238 208.242 478.74 209.398 477.853 210.249C476.967 211.101 475.765 211.58 474.511 211.58Z" fill="#E6E6E6"/>
<path d="M455.015 246.817L306.222 246.817C304.969 246.817 303.767 246.339 302.88 245.487C301.994 244.635 301.496 243.479 301.496 242.275C301.496 241.07 301.994 239.914 302.88 239.063C303.767 238.211 304.969 237.732 306.222 237.732L455.015 237.732C456.269 237.732 457.471 238.211 458.357 239.062C459.244 239.914 459.742 241.07 459.742 242.275C459.742 243.479 459.244 244.635 458.357 245.487C457.471 246.339 456.269 246.817 455.015 246.817Z" fill="#E6E6E6"/>
<path d="M474.511 262.148L306.222 262.149C304.969 262.149 303.767 261.67 302.88 260.818C301.994 259.966 301.496 258.811 301.496 257.606C301.496 256.401 301.994 255.246 302.88 254.394C303.767 253.542 304.969 253.063 306.222 253.063L474.511 253.063C475.765 253.063 476.967 253.542 477.853 254.394C478.74 255.246 479.238 256.401 479.238 257.606C479.238 258.811 478.74 259.966 477.853 260.818C476.967 261.67 475.765 262.148 474.511 262.148Z" fill="#E6E6E6"/>
<path d="M368.59 413.216H157.461C154.803 413.213 152.255 412.197 150.376 410.39C148.496 408.584 147.439 406.135 147.436 403.58V128.103C147.439 125.548 148.496 123.099 150.376 121.292C152.255 119.486 154.803 118.47 157.461 118.467H368.59C371.248 118.47 373.796 119.486 375.676 121.292C377.555 123.099 378.612 125.548 378.615 128.103V403.58C378.612 406.135 377.555 408.584 375.676 410.39C373.796 412.197 371.248 413.213 368.59 413.216Z" fill="white"/>
<path d="M175.07 189.386C175.063 194.346 176.078 199.259 178.057 203.841C180.036 208.422 182.939 212.582 186.599 216.08C186.905 216.371 187.219 216.662 187.536 216.947C189.447 218.663 191.533 220.191 193.761 221.507C194.188 221.761 194.616 222.004 195.055 222.24C197.308 223.461 199.682 224.463 202.141 225.232C202.566 225.365 202.997 225.492 203.428 225.608C211.247 227.764 219.568 227.539 227.249 224.964C227.398 224.913 227.548 224.862 227.694 224.81C234.436 222.453 240.376 218.363 244.868 212.986C249.359 207.608 252.23 201.15 253.167 194.314C254.104 187.477 253.073 180.524 250.184 174.212C247.295 167.901 242.66 162.471 236.784 158.515C230.908 154.56 224.015 152.229 216.856 151.777C209.697 151.325 202.546 152.77 196.182 155.953C189.818 159.137 184.484 163.937 180.762 169.832C177.039 175.727 175.071 182.49 175.07 189.386Z" fill="white"/>
<path d="M206.002 207.859C206.021 210.779 204.901 213.599 202.864 215.765C200.847 217.892 197.846 219.302 194.817 218.719C192.028 218.181 189.761 215.838 190.044 213.004C190.091 212.39 190.276 211.793 190.588 211.255C190.899 210.717 191.329 210.251 191.847 209.889C192.365 209.527 192.959 209.279 193.588 209.16C194.216 209.041 194.864 209.056 195.486 209.202C198.136 209.863 199.191 213.534 196.984 215.256C196.454 215.67 195.693 214.947 196.227 214.53C196.557 214.24 196.806 213.875 196.951 213.469C197.096 213.063 197.133 212.628 197.058 212.205C196.983 211.781 196.799 211.383 196.522 211.045C196.245 210.708 195.885 210.443 195.474 210.274C194.989 210.125 194.476 210.084 193.972 210.154C193.468 210.224 192.987 210.403 192.566 210.678C192.145 210.953 191.794 211.316 191.54 211.74C191.287 212.165 191.137 212.639 191.103 213.127C190.928 215.517 192.832 217.316 195.168 217.74C197.695 218.198 200.2 216.955 201.912 215.24C203.874 213.247 204.957 210.602 204.933 207.859C204.937 207.725 204.996 207.599 205.096 207.506C205.195 207.414 205.329 207.362 205.467 207.362C205.606 207.362 205.74 207.414 205.839 207.506C205.939 207.599 205.998 207.725 206.002 207.859Z" fill="#2F2E41"/>
<path d="M216.445 214.393C226.982 214.393 235.524 206.183 235.524 196.056C235.524 185.928 226.982 177.718 216.445 177.718C205.908 177.718 197.366 185.928 197.366 196.056C197.366 206.183 205.908 214.393 216.445 214.393Z" fill="url(#paint2_linear_38_813)"/>
<path d="M215.469 203.88L215.449 203.195C216.775 203.159 217.945 203.079 218.823 202.462C219.073 202.278 219.277 202.043 219.424 201.776C219.57 201.508 219.655 201.213 219.672 200.911C219.688 200.726 219.659 200.541 219.588 200.369C219.516 200.197 219.405 200.043 219.261 199.919C218.929 199.726 218.549 199.622 218.161 199.619C217.773 199.615 217.391 199.713 217.056 199.9L216.466 200.16L217.597 192.215L218.303 192.308L217.341 199.067C217.735 198.926 218.159 198.883 218.575 198.94C218.991 198.998 219.385 199.154 219.722 199.396C219.948 199.586 220.126 199.824 220.241 200.091C220.356 200.358 220.405 200.647 220.385 200.935C220.364 201.341 220.251 201.737 220.054 202.097C219.857 202.456 219.581 202.77 219.244 203.016C218.115 203.809 216.648 203.848 215.469 203.88Z" fill="#E6E6E6"/>
<path d="M225.636 192.89H221.797V193.576H225.636V192.89Z" fill="#E6E6E6"/>
<path d="M213.516 192.89H209.676V193.576H213.516V192.89Z" fill="#E6E6E6"/>
<path d="M203.428 225.608C211.247 227.764 219.568 227.539 227.249 224.964C227.398 224.913 227.548 224.862 227.694 224.81C225.884 223.468 223.837 222.451 221.652 221.809C221.806 221.282 221.804 220.724 221.645 220.198C221.428 219.532 220.994 218.951 220.406 218.541C219.819 218.131 219.109 217.914 218.383 217.923H213.734C213.009 217.914 212.301 218.13 211.714 218.539C211.128 218.949 210.695 219.529 210.48 220.195C210.32 220.722 210.318 221.281 210.473 221.809C208.547 222.375 206.728 223.232 205.082 224.348C204.751 224.57 204.43 224.803 204.12 225.047C203.885 225.228 203.653 225.417 203.428 225.608Z" fill="#2F2E41"/>
<path d="M231.391 194.11C231.391 197.201 232.974 199.764 235.031 200.209C235.24 200.254 235.454 200.277 235.669 200.278C238.025 200.278 239.947 197.513 239.947 194.11C240 192.356 239.418 190.639 238.3 189.252C237.952 188.847 237.524 188.513 237.041 188.269C236.617 188.056 236.147 187.944 235.669 187.943C235.012 187.951 234.375 188.157 233.847 188.532C232.396 189.519 231.391 191.647 231.391 194.11Z" fill="#3F3D56"/>
<path d="M193.247 194.11C193.247 196.769 194.416 199.037 196.056 199.904C196.505 200.146 197.011 200.275 197.525 200.278C197.639 200.278 197.754 200.271 197.867 200.257C200.063 200.007 201.803 197.348 201.803 194.11C201.803 191.517 200.687 189.293 199.111 188.385C198.635 188.101 198.086 187.948 197.525 187.943C197.047 187.944 196.576 188.056 196.153 188.269C195.668 188.514 195.239 188.85 194.891 189.255C193.776 190.643 193.195 192.358 193.247 194.11Z" fill="#3F3D56"/>
<path d="M196.323 199.313C196.408 199.313 196.492 199.294 196.567 199.256C196.643 199.219 196.708 199.165 196.757 199.099C196.807 199.032 196.839 198.956 196.852 198.875C196.864 198.794 196.857 198.712 196.83 198.635C195.808 195.714 195.5 192.606 195.932 189.552C196.363 186.498 197.52 183.581 199.315 181.027C201.11 178.473 203.493 176.352 206.279 174.827C209.066 173.303 212.18 172.416 215.381 172.237C218.582 172.057 221.783 172.59 224.735 173.792C227.687 174.995 230.311 176.836 232.402 179.172C234.494 181.508 235.997 184.275 236.794 187.26C237.592 190.245 237.663 193.367 237.001 196.382C236.972 196.515 236.999 196.654 237.077 196.768C237.154 196.882 237.276 196.962 237.414 196.99C237.553 197.018 237.697 196.992 237.816 196.918C237.935 196.844 238.018 196.727 238.048 196.594C238.744 193.424 238.67 190.142 237.831 187.004C236.993 183.865 235.413 180.955 233.214 178.499C231.015 176.043 228.257 174.107 225.153 172.843C222.049 171.578 218.684 171.018 215.318 171.207C211.953 171.396 208.678 172.328 205.749 173.931C202.819 175.534 200.313 177.765 198.427 180.45C196.54 183.136 195.323 186.203 194.87 189.414C194.418 192.624 194.741 195.892 195.816 198.963C195.852 199.065 195.92 199.154 196.011 199.216C196.102 199.279 196.211 199.313 196.323 199.313Z" fill="#3F3D56"/>
<path d="M226.029 184.175C226.346 184.672 226.477 185.257 226.402 185.835C226.327 186.413 226.05 186.949 225.616 187.356C224.58 188.468 222.929 188.538 221.495 188.332C219.885 188.1 218.178 187.376 216.549 187.864C215.161 188.28 214.17 189.491 212.727 189.795C211.448 190.065 209.918 189.708 209.469 188.397C209.254 187.767 210.286 187.497 210.501 188.124C210.791 188.972 212.044 188.955 212.761 188.72C213.912 188.343 214.798 187.428 215.929 186.99C217.277 186.589 218.72 186.593 220.065 187.001C221.344 187.278 222.816 187.689 224.091 187.172C225.034 186.789 225.784 185.583 225.106 184.694C224.699 184.159 225.626 183.646 226.029 184.175Z" fill="#E6E6E6"/>
<path d="M214.283 228.103C210.511 228.106 206.757 227.598 203.132 226.596C202.706 226.481 202.258 226.35 201.809 226.208C199.283 225.418 196.845 224.389 194.53 223.136C194.096 222.902 193.66 222.655 193.199 222.382C190.911 221.029 188.769 219.46 186.806 217.698C186.482 217.407 186.161 217.109 185.847 216.811C179.673 210.894 175.663 203.211 174.419 194.917C173.176 186.622 174.766 178.164 178.952 170.812C183.137 163.46 189.691 157.612 197.63 154.147C205.569 150.681 214.463 149.785 222.977 151.594C231.491 153.402 239.164 157.816 244.845 164.174C250.525 170.532 253.906 178.49 254.479 186.852C255.052 195.214 252.786 203.529 248.022 210.548C243.258 217.567 236.253 222.911 228.06 225.776C227.913 225.828 227.76 225.88 227.608 225.932C223.326 227.374 218.821 228.107 214.283 228.103ZM214.283 152.724C206.734 152.724 199.354 154.878 193.079 158.912C186.804 162.945 181.915 168.678 179.032 175.384C176.148 182.09 175.4 189.467 176.881 196.582C178.363 203.697 182.007 210.229 187.354 215.352C187.65 215.633 187.956 215.917 188.266 216.195C190.125 217.864 192.154 219.35 194.321 220.632C194.757 220.89 195.168 221.123 195.578 221.344C197.77 222.531 200.079 223.506 202.472 224.254C202.895 224.387 203.313 224.51 203.718 224.619C211.325 226.717 219.422 226.499 226.895 223.994L227.327 223.845C235.755 220.896 242.832 215.188 247.316 207.724C251.8 200.259 253.405 191.514 251.848 183.025C250.291 174.536 245.672 166.846 238.802 161.304C231.933 155.763 223.252 152.725 214.283 152.724Z" fill="#CCCCCC"/>
<path d="M368.59 413.216H157.461C154.803 413.213 152.255 412.197 150.376 410.39C148.496 408.584 147.439 406.135 147.436 403.58V128.103C147.439 125.548 148.496 123.099 150.376 121.292C152.255 119.486 154.803 118.47 157.461 118.467H368.59C371.248 118.47 373.796 119.486 375.676 121.292C377.555 123.099 378.612 125.548 378.615 128.103V403.58C378.612 406.135 377.555 408.584 375.676 410.39C373.796 412.197 371.248 413.213 368.59 413.216ZM157.461 119.6C155.116 119.603 152.868 120.499 151.209 122.093C149.551 123.687 148.618 125.848 148.615 128.103V403.58C148.618 405.834 149.551 407.995 151.209 409.589C152.868 411.183 155.116 412.08 157.461 412.082H368.59C370.935 412.08 373.183 411.183 374.842 409.589C376.5 407.995 377.433 405.834 377.436 403.58V128.103C377.433 125.848 376.5 123.687 374.842 122.093C373.183 120.499 370.935 119.603 368.59 119.6H157.461Z" fill="#3F3D56"/>
<path d="M327.718 190.014H267.976C266.722 190.014 265.52 189.535 264.634 188.683C263.747 187.831 263.249 186.676 263.249 185.471C263.249 184.266 263.747 183.111 264.634 182.259C265.52 181.407 266.722 180.928 267.976 180.928H327.718C328.971 180.928 330.173 181.407 331.06 182.259C331.946 183.111 332.444 184.266 332.444 185.471C332.444 186.676 331.946 187.831 331.06 188.683C330.173 189.535 328.971 190.014 327.718 190.014Z" fill="url(#paint3_linear_38_813)"/>
<path d="M347.214 205.345H267.976C266.722 205.345 265.52 204.866 264.634 204.014C263.747 203.163 263.249 202.007 263.249 200.802C263.249 199.598 263.747 198.442 264.634 197.59C265.52 196.738 266.722 196.26 267.976 196.26H347.214C348.467 196.26 349.669 196.738 350.556 197.59C351.442 198.442 351.94 199.598 351.94 200.802C351.94 202.007 351.442 203.163 350.556 204.014C349.669 204.866 348.467 205.345 347.214 205.345Z" fill="url(#paint4_linear_38_813)"/>
<path d="M327.631 264.147H178.838C177.584 264.147 176.382 263.668 175.496 262.816C174.609 261.964 174.111 260.809 174.111 259.604C174.111 258.399 174.609 257.244 175.496 256.392C176.382 255.54 177.584 255.062 178.838 255.062H327.631C328.884 255.062 330.086 255.54 330.973 256.392C331.859 257.244 332.357 258.399 332.357 259.604C332.357 260.809 331.859 261.964 330.973 262.816C330.086 263.668 328.884 264.147 327.631 264.147Z" fill="#CCCCCC"/>
<path d="M347.127 279.478H178.838C177.584 279.478 176.382 279 175.496 278.148C174.609 277.296 174.111 276.14 174.111 274.935C174.111 273.731 174.609 272.575 175.496 271.723C176.382 270.871 177.584 270.393 178.838 270.393H347.127C348.38 270.393 349.582 270.871 350.469 271.723C351.355 272.575 351.853 273.731 351.853 274.935C351.853 276.14 351.355 277.296 350.469 278.148C349.582 279 348.38 279.478 347.127 279.478Z" fill="#CCCCCC"/>
<path d="M327.631 314.715H178.838C177.585 314.714 176.384 314.235 175.499 313.383C174.614 312.531 174.117 311.376 174.117 310.173C174.117 308.969 174.614 307.814 175.499 306.963C176.384 306.111 177.585 305.632 178.838 305.63H327.631C328.884 305.63 330.086 306.109 330.973 306.961C331.859 307.813 332.357 308.968 332.357 310.173C332.357 311.377 331.859 312.533 330.973 313.385C330.086 314.237 328.884 314.715 327.631 314.715Z" fill="#CCCCCC"/>
<path d="M347.127 330.047H178.838C177.585 330.045 176.384 329.566 175.499 328.714C174.614 327.862 174.117 326.708 174.117 325.504C174.117 324.3 174.614 323.146 175.499 322.294C176.384 321.442 177.585 320.963 178.838 320.961H347.127C348.38 320.961 349.582 321.44 350.469 322.292C351.355 323.144 351.853 324.299 351.853 325.504C351.853 326.709 351.355 327.864 350.469 328.716C349.582 329.568 348.38 330.047 347.127 330.047Z" fill="#CCCCCC"/>
<path d="M327.631 365.284H178.838C177.584 365.284 176.382 364.805 175.496 363.953C174.609 363.101 174.111 361.946 174.111 360.741C174.111 359.536 174.609 358.381 175.496 357.529C176.382 356.677 177.584 356.199 178.838 356.199H327.631C328.884 356.199 330.086 356.677 330.973 357.529C331.859 358.381 332.357 359.536 332.357 360.741C332.357 361.946 331.859 363.101 330.973 363.953C330.086 364.805 328.884 365.284 327.631 365.284Z" fill="#CCCCCC"/>
<path d="M347.127 380.615H178.838C177.584 380.615 176.382 380.137 175.496 379.285C174.609 378.433 174.111 377.277 174.111 376.072C174.111 374.868 174.609 373.712 175.496 372.86C176.382 372.008 177.584 371.53 178.838 371.53H347.127C348.38 371.53 349.582 372.008 350.469 372.86C351.355 373.712 351.853 374.868 351.853 376.072C351.853 377.277 351.355 378.433 350.469 379.285C349.582 380.137 348.38 380.615 347.127 380.615Z" fill="#CCCCCC"/>
<path d="M366.14 350.488C360.02 350.481 353.96 351.634 348.304 353.88C342.648 356.126 337.509 359.422 333.179 363.579C328.85 367.735 325.415 372.671 323.072 378.105C320.728 383.538 319.522 389.362 319.522 395.244C319.522 401.125 320.728 406.949 323.071 412.383C325.415 417.816 328.85 422.752 333.179 426.909C337.509 431.065 342.648 434.361 348.304 436.607C353.959 438.854 360.02 440.006 366.14 440C378.475 439.979 390.299 435.254 399.014 426.863C407.729 418.472 412.624 407.1 412.624 395.244C412.624 383.387 407.729 372.015 399.014 363.624C390.299 355.233 378.476 350.508 366.14 350.488Z" fill="url(#paint5_linear_38_813)"/>
<path d="M361.721 413.831C360.496 413.833 359.302 413.452 358.322 412.745L358.261 412.701L345.455 403.286C344.259 402.403 343.476 401.1 343.279 399.662C343.082 398.225 343.487 396.771 344.405 395.621C345.323 394.47 346.678 393.717 348.174 393.526C349.669 393.336 351.182 393.724 352.38 394.605L360.674 400.718L380.275 376.141C380.729 375.571 381.296 375.093 381.943 374.734C382.589 374.375 383.303 374.141 384.044 374.047C384.785 373.953 385.537 374 386.259 374.186C386.98 374.371 387.657 374.692 388.25 375.129L388.252 375.13L388.13 375.292L388.255 375.13C389.451 376.013 390.233 377.317 390.43 378.754C390.628 380.191 390.224 381.645 389.307 382.797L366.253 411.692C365.719 412.357 365.034 412.896 364.249 413.266C363.464 413.636 362.601 413.827 361.726 413.825L361.721 413.831Z" fill="white"/>
</g>
<defs>
<linearGradient id="paint0_linear_38_813" x1="65.9195" y1="129.143" x2="65.9195" y2="165.817" gradientUnits="userSpaceOnUse">
<stop stop-color="#090E34"/>
<stop offset="0.458333" stop-color="#12163B" stop-opacity="0.958333"/>
<stop offset="0.682292" stop-color="#312472" stop-opacity="0.958333"/>
<stop offset="0.9999" stop-color="#3D4CBF" stop-opacity="0.958333"/>
<stop offset="1" stop-color="#D9D9D9" stop-opacity="0"/>
</linearGradient>
<linearGradient id="paint1_linear_38_813" x1="340.823" y1="59.6904" x2="340.823" y2="95.8441" gradientUnits="userSpaceOnUse">
<stop stop-color="#090E34"/>
<stop offset="0.458333" stop-color="#12163B" stop-opacity="0.958333"/>
<stop offset="0.682292" stop-color="#312472" stop-opacity="0.958333"/>
<stop offset="0.9999" stop-color="#3D4CBF" stop-opacity="0.958333"/>
<stop offset="1" stop-color="#D9D9D9" stop-opacity="0"/>
</linearGradient>
<linearGradient id="paint2_linear_38_813" x1="216.445" y1="177.718" x2="216.445" y2="214.393" gradientUnits="userSpaceOnUse">
<stop stop-color="#090E34"/>
<stop offset="0.458333" stop-color="#12163B" stop-opacity="0.958333"/>
<stop offset="0.682292" stop-color="#312472" stop-opacity="0.958333"/>
<stop offset="0.9999" stop-color="#3D4CBF" stop-opacity="0.958333"/>
<stop offset="1" stop-color="#D9D9D9" stop-opacity="0"/>
</linearGradient>
<linearGradient id="paint3_linear_38_813" x1="297.847" y1="180.928" x2="297.847" y2="190.014" gradientUnits="userSpaceOnUse">
<stop stop-color="#090E34"/>
<stop offset="0.458333" stop-color="#12163B" stop-opacity="0.958333"/>
<stop offset="0.682292" stop-color="#312472" stop-opacity="0.958333"/>
<stop offset="0.9999" stop-color="#3D4CBF" stop-opacity="0.958333"/>
<stop offset="1" stop-color="#D9D9D9" stop-opacity="0"/>
</linearGradient>
<linearGradient id="paint4_linear_38_813" x1="307.595" y1="196.26" x2="307.595" y2="205.345" gradientUnits="userSpaceOnUse">
<stop stop-color="#090E34"/>
<stop offset="0.458333" stop-color="#12163B" stop-opacity="0.958333"/>
<stop offset="0.682292" stop-color="#312472" stop-opacity="0.958333"/>
<stop offset="0.9999" stop-color="#3D4CBF" stop-opacity="0.958333"/>
<stop offset="1" stop-color="#D9D9D9" stop-opacity="0"/>
</linearGradient>
<linearGradient id="paint5_linear_38_813" x1="366.073" y1="350.487" x2="366.073" y2="440" gradientUnits="userSpaceOnUse">
<stop stop-color="#090E34"/>
<stop offset="0.458333" stop-color="#12163B" stop-opacity="0.958333"/>
<stop offset="0.682292" stop-color="#312472" stop-opacity="0.958333"/>
<stop offset="0.9999" stop-color="#3D4CBF" stop-opacity="0.958333"/>
<stop offset="1" stop-color="#D9D9D9" stop-opacity="0"/>
</linearGradient>
<clipPath id="clip0_38_813">
<rect width="506" height="440" fill="white"/>
</clipPath>
</defs>
</svg>
