<svg width="80" height="80" viewBox="0 0 80 80" fill="none" xmlns="http://www.w3.org/2000/svg">
<circle cx="40" cy="40" r="40" fill="url(#paint0_linear_38_1110)"/>
<path d="M34.3363 50.3462C32.8744 50.3462 31.6197 49.9763 30.5721 49.2365C29.5304 48.4908 28.7285 47.4165 28.1662 46.0138C27.6098 44.6052 27.3317 42.9096 27.3317 40.9268C27.3376 38.9441 27.6187 37.2573 28.1751 35.8665C28.7373 34.4697 29.5393 33.4044 30.581 32.6705C31.6286 31.9366 32.8803 31.5696 34.3363 31.5696C35.7923 31.5696 37.044 31.9366 38.0916 32.6705C39.1392 33.4044 39.9412 34.4697 40.4975 35.8665C41.0598 37.2633 41.3409 38.95 41.3409 40.9268C41.3409 42.9155 41.0598 44.6141 40.4975 46.0227C39.9412 47.4254 39.1392 48.4967 38.0916 49.2365C37.05 49.9763 35.7982 50.3462 34.3363 50.3462ZM34.3363 47.5675C35.4727 47.5675 36.3693 47.0082 37.0263 45.8896C37.6892 44.765 38.0206 43.1108 38.0206 40.9268C38.0206 39.4827 37.8697 38.2694 37.5678 37.2869C37.266 36.3045 36.8398 35.5646 36.2894 35.0675C35.739 34.5644 35.088 34.3129 34.3363 34.3129C33.2058 34.3129 32.3121 34.8751 31.6552 35.9996C30.9982 37.1183 30.6668 38.7607 30.6609 40.9268C30.6549 42.3769 30.8 43.5961 31.0959 44.5845C31.3977 45.5729 31.8239 46.3187 32.3743 46.8217C32.9247 47.3189 33.5787 47.5675 34.3363 47.5675ZM51.6858 31.8182V50H48.3921V35.0231H48.2856L44.0331 37.7397V34.7212L48.5519 31.8182H51.6858Z" fill="white"/>
<defs>
<linearGradient id="paint0_linear_38_1110" x1="40" y1="0" x2="40" y2="80" gradientUnits="userSpaceOnUse">
<stop stop-color="#090E34"/>
<stop offset="0.458333" stop-color="#12163B" stop-opacity="0.958333"/>
<stop offset="0.682292" stop-color="#312472" stop-opacity="0.958333"/>
<stop offset="0.9999" stop-color="#3D4CBF" stop-opacity="0.958333"/>
<stop offset="1" stop-color="#D9D9D9" stop-opacity="0"/>
</linearGradient>
</defs>
</svg>
