<svg width="80" height="80" viewBox="0 0 80 80" fill="none" xmlns="http://www.w3.org/2000/svg">
<circle cx="40" cy="40" r="39" stroke="url(#paint0_linear_38_1119)" stroke-width="2"/>
<path d="M32.3363 50.3462C30.8744 50.3462 29.6197 49.9763 28.5721 49.2365C27.5304 48.4908 26.7285 47.4165 26.1662 46.0138C25.6098 44.6052 25.3317 42.9096 25.3317 40.9268C25.3376 38.9441 25.6187 37.2573 26.1751 35.8665C26.7373 34.4697 27.5393 33.4044 28.581 32.6705C29.6286 31.9366 30.8803 31.5696 32.3363 31.5696C33.7923 31.5696 35.044 31.9366 36.0916 32.6705C37.1392 33.4044 37.9412 34.4697 38.4975 35.8665C39.0598 37.2633 39.3409 38.95 39.3409 40.9268C39.3409 42.9155 39.0598 44.6141 38.4975 46.0227C37.9412 47.4254 37.1392 48.4967 36.0916 49.2365C35.05 49.9763 33.7982 50.3462 32.3363 50.3462ZM32.3363 47.5675C33.4727 47.5675 34.3693 47.0082 35.0263 45.8896C35.6892 44.765 36.0206 43.1108 36.0206 40.9268C36.0206 39.4827 35.8697 38.2694 35.5678 37.2869C35.266 36.3045 34.8398 35.5646 34.2894 35.0675C33.739 34.5644 33.088 34.3129 32.3363 34.3129C31.2058 34.3129 30.3121 34.8751 29.6552 35.9996C28.9982 37.1183 28.6668 38.7607 28.6609 40.9268C28.6549 42.3769 28.8 43.5961 29.0959 44.5845C29.3977 45.5729 29.8239 46.3187 30.3743 46.8217C30.9247 47.3189 31.5787 47.5675 32.3363 47.5675ZM42.2906 50V47.6207L48.6027 41.4329C49.2064 40.8233 49.7095 40.2817 50.1119 39.8082C50.5144 39.3348 50.8163 38.8761 51.0175 38.4322C51.2187 37.9883 51.3193 37.5148 51.3193 37.0117C51.3193 36.4376 51.1891 35.9464 50.9287 35.538C50.6683 35.1237 50.3102 34.8041 49.8545 34.5792C49.3988 34.3543 48.8809 34.2418 48.3009 34.2418C47.7031 34.2418 47.1793 34.3661 46.7295 34.6147C46.2797 34.8574 45.9305 35.2036 45.6819 35.6534C45.4392 36.1032 45.3179 36.6388 45.3179 37.2603H42.184C42.184 36.1062 42.4474 35.103 42.9742 34.2507C43.5009 33.3984 44.2259 32.7385 45.1492 32.271C46.0785 31.8034 47.1438 31.5696 48.3453 31.5696C49.5645 31.5696 50.6357 31.7975 51.559 32.2532C52.4823 32.7089 53.1985 33.3333 53.7075 34.1264C54.2224 34.9195 54.4798 35.825 54.4798 36.843C54.4798 37.5237 54.3496 38.1925 54.0892 38.8494C53.8288 39.5064 53.3701 40.2344 52.7132 41.0334C52.0621 41.8324 51.1477 42.8001 49.9699 43.9364L46.836 47.1236V47.2479H54.7551V50H42.2906Z" fill="url(#paint1_linear_38_1119)"/>
<defs>
<linearGradient id="paint0_linear_38_1119" x1="40" y1="0" x2="40" y2="80" gradientUnits="userSpaceOnUse">
<stop stop-color="#090E34"/>
<stop offset="0.458333" stop-color="#12163B" stop-opacity="0.958333"/>
<stop offset="0.682292" stop-color="#312472" stop-opacity="0.958333"/>
<stop offset="0.9999" stop-color="#3D4CBF" stop-opacity="0.958333"/>
<stop offset="1" stop-color="#D9D9D9" stop-opacity="0"/>
</linearGradient>
<linearGradient id="paint1_linear_38_1119" x1="40.5" y1="23" x2="40.5" y2="58" gradientUnits="userSpaceOnUse">
<stop stop-color="#090E34"/>
<stop offset="0.458333" stop-color="#12163B" stop-opacity="0.958333"/>
<stop offset="0.682292" stop-color="#312472" stop-opacity="0.958333"/>
<stop offset="0.9999" stop-color="#3D4CBF" stop-opacity="0.958333"/>
<stop offset="1" stop-color="#D9D9D9" stop-opacity="0"/>
</linearGradient>
</defs>
</svg>
