<svg width="80" height="80" viewBox="0 0 80 80" fill="none" xmlns="http://www.w3.org/2000/svg">
<circle cx="40" cy="40" r="40" fill="url(#paint0_linear_38_1126)"/>
<path d="M31.3363 50.3462C29.8744 50.3462 28.6197 49.9763 27.5721 49.2365C26.5304 48.4908 25.7285 47.4165 25.1662 46.0138C24.6098 44.6052 24.3317 42.9096 24.3317 40.9268C24.3376 38.9441 24.6187 37.2573 25.1751 35.8665C25.7373 34.4697 26.5393 33.4044 27.581 32.6705C28.6286 31.9366 29.8803 31.5696 31.3363 31.5696C32.7923 31.5696 34.044 31.9366 35.0916 32.6705C36.1392 33.4044 36.9412 34.4697 37.4975 35.8665C38.0598 37.2633 38.3409 38.95 38.3409 40.9268C38.3409 42.9155 38.0598 44.6141 37.4975 46.0227C36.9412 47.4254 36.1392 48.4967 35.0916 49.2365C34.05 49.9763 32.7982 50.3462 31.3363 50.3462ZM31.3363 47.5675C32.4727 47.5675 33.3693 47.0082 34.0263 45.8896C34.6892 44.765 35.0206 43.1108 35.0206 40.9268C35.0206 39.4827 34.8697 38.2694 34.5678 37.2869C34.266 36.3045 33.8398 35.5646 33.2894 35.0675C32.739 34.5644 32.088 34.3129 31.3363 34.3129C30.2058 34.3129 29.3121 34.8751 28.6552 35.9996C27.9982 37.1183 27.6668 38.7607 27.6609 40.9268C27.6549 42.3769 27.8 43.5961 28.0959 44.5845C28.3977 45.5729 28.8239 46.3187 29.3743 46.8217C29.9247 47.3189 30.5787 47.5675 31.3363 47.5675ZM47.8158 50.2486C46.5374 50.2486 45.401 50.0296 44.4067 49.5916C43.4183 49.1536 42.637 48.544 42.0629 47.7628C41.4888 46.9815 41.184 46.079 41.1485 45.055H44.4866C44.5162 45.5463 44.6789 45.9754 44.9749 46.3423C45.2708 46.7034 45.6644 46.9845 46.1556 47.1857C46.6469 47.387 47.1973 47.4876 47.8069 47.4876C48.4579 47.4876 49.035 47.3751 49.5381 47.1502C50.0412 46.9194 50.4347 46.5998 50.7188 46.1914C51.0029 45.783 51.142 45.3125 51.1361 44.7798C51.142 44.2294 51 43.7441 50.71 43.3239C50.42 42.9036 49.9997 42.5752 49.4493 42.3384C48.9048 42.1017 48.2478 41.9833 47.4784 41.9833H45.8715V39.4442H47.4784C48.1117 39.4442 48.6651 39.3348 49.1386 39.1158C49.618 38.8968 49.9938 38.589 50.2661 38.1925C50.5383 37.79 50.6715 37.3254 50.6656 36.7987C50.6715 36.2837 50.5561 35.8369 50.3193 35.4581C50.0885 35.0734 49.76 34.7745 49.3339 34.5614C48.9137 34.3484 48.4195 34.2418 47.8513 34.2418C47.295 34.2418 46.78 34.3424 46.3066 34.5437C45.8331 34.7449 45.4513 35.032 45.1613 35.4048C44.8713 35.7718 44.7174 36.2098 44.6997 36.7188H41.5303C41.5539 35.7008 41.8469 34.8071 42.4092 34.0376C42.9774 33.2623 43.7349 32.6586 44.6819 32.2266C45.6289 31.7886 46.6913 31.5696 47.8691 31.5696C49.0824 31.5696 50.1359 31.7975 51.0296 32.2532C51.9292 32.703 52.6246 33.3097 53.1159 34.0732C53.6071 34.8366 53.8527 35.68 53.8527 36.6033C53.8586 37.6272 53.5568 38.4854 52.9472 39.1779C52.3435 39.8704 51.5504 40.3232 50.5679 40.5362V40.6783C51.8463 40.8558 52.8258 41.3293 53.5065 42.0987C54.193 42.8622 54.5334 43.8121 54.5274 44.9485C54.5274 45.9665 54.2374 46.878 53.6574 47.6829C53.0833 48.4819 52.2902 49.1093 51.2781 49.565C50.272 50.0207 49.1179 50.2486 47.8158 50.2486Z" fill="white"/>
<defs>
<linearGradient id="paint0_linear_38_1126" x1="40" y1="0" x2="40" y2="80" gradientUnits="userSpaceOnUse">
<stop stop-color="#090E34"/>
<stop offset="0.458333" stop-color="#12163B" stop-opacity="0.958333"/>
<stop offset="0.682292" stop-color="#312472" stop-opacity="0.958333"/>
<stop offset="0.9999" stop-color="#3D4CBF" stop-opacity="0.958333"/>
<stop offset="1" stop-color="#D9D9D9" stop-opacity="0"/>
</linearGradient>
</defs>
</svg>
